<?xml version="1.0" encoding="UTF-8"?>
<svg height="16px" viewBox="0 0 16 16" width="16px" xmlns="http://www.w3.org/2000/svg">
    <path d="m 13.355469 0 c -0.253907 0.0078125 -0.472657 0.183594 -0.527344 0.429688 l -0.464844 2.097656 c -1.195312 -0.957032 -2.710937 -1.527344 -4.363281 -1.527344 c -3.867188 0 -7 3.132812 -7 7 c 0 1.652344 0.574219 3.167969 1.53125 4.367188 l -2.101562 0.464843 c -0.195313 0.046875 -0.351563 0.191407 -0.4062505 0.382813 c -0.0585937 0.195312 -0.0039063 0.402344 0.1367185 0.542968 l 2.085938 2.085938 c 0.140625 0.140625 0.347656 0.195312 0.539062 0.140625 c 0.195313 -0.058594 0.339844 -0.214844 0.382813 -0.410156 l 0.46875 -2.101563 c 1.195312 0.957032 2.710937 1.527344 4.363281 1.527344 c 3.867188 0 7 -3.132812 7 -7 c 0 -1.652344 -0.570312 -3.167969 -1.527344 -4.363281 l 2.09375 -0.464844 c 0.199219 -0.042969 0.355469 -0.191406 0.410156 -0.382813 c 0.054688 -0.191406 0.003907 -0.398437 -0.140624 -0.539062 l -2.085938 -2.085938 c -0.105469 -0.1054682 -0.246094 -0.164062 -0.394531 -0.164062 z m -5.355469 3 c 0.898438 0 1.777344 0.242188 2.550781 0.703125 l -2.570312 4.316406 l 4.769531 -1.582031 c 0.164062 0.503906 0.25 1.03125 0.25 1.5625 c -0.003906 0.914062 -0.253906 1.808594 -0.730469 2.585938 l -4.308593 -2.566407 l 1.570312 4.730469 c -0.496094 0.160156 -1.011719 0.246094 -1.53125 0.25 c -0.914062 -0.003906 -1.808594 -0.253906 -2.585938 -0.730469 l 2.546876 -4.269531 l -4.699219 1.558594 c -0.171875 -0.503906 -0.257813 -1.027344 -0.261719 -1.558594 c 0.003906 -0.898438 0.246094 -1.777344 0.703125 -2.550781 l 4.277344 2.550781 l -1.570313 -4.730469 c 0.511719 -0.175781 1.050782 -0.265625 1.589844 -0.269531 z m 0 0"/>
</svg>
